<?xml version="1.0" encoding="UTF-8" standalone="no"?><!DOCTYPE svg PUBLIC "-//W3C//DTD SVG 1.1//EN" "http://www.w3.org/Graphics/SVG/1.1/DTD/svg11.dtd"><svg width="100%" height="100%" viewBox="0 0 240 240" version="1.1" xmlns="http://www.w3.org/2000/svg" xmlns:xlink="http://www.w3.org/1999/xlink" xml:space="preserve" xmlns:serif="http://www.serif.com/" style="fill-rule:evenodd;clip-rule:evenodd;stroke-linejoin:round;stroke-miterlimit:2;"><path d="M240,23.188l0,193.623c0,12.798 -10.39,23.188 -23.188,23.188l-193.623,0c-12.798,0 -23.188,-10.39 -23.188,-23.188l0,-193.623c0,-12.798 10.39,-23.188 23.188,-23.188l193.623,0c12.798,0 23.188,10.39 23.188,23.188Z" style="fill:#ebebeb;"/><g><g><path d="M17.836,179.552l0,-119.104l86.119,0l0,14.055l-70.357,0l-0,36.479l65.889,0l0,13.974l-65.889,0l-0,40.541l73.12,0l0,14.055l-88.881,0Z" style="fill-rule:nonzero;"/><path d="M128.328,179.552l0,-119.104l16.168,0l62.558,93.512l0,-93.512l15.111,0l0,119.104l-16.168,0l-62.558,-93.593l0,93.593l-15.111,0Z" style="fill-rule:nonzero;"/></g></g></svg>