<?xml version="1.0" encoding="UTF-8" standalone="no"?><!DOCTYPE svg PUBLIC "-//W3C//DTD SVG 1.1//EN" "http://www.w3.org/Graphics/SVG/1.1/DTD/svg11.dtd"><svg width="100%" height="100%" viewBox="0 0 240 240" version="1.1" xmlns="http://www.w3.org/2000/svg" xmlns:xlink="http://www.w3.org/1999/xlink" xml:space="preserve" xmlns:serif="http://www.serif.com/" style="fill-rule:evenodd;clip-rule:evenodd;stroke-linejoin:round;stroke-miterlimit:2;"><g id="Background"><rect x="0" y="0" width="240" height="240" style="fill:#ebebeb;"/></g><g><g><path d="M17.55,172.634l0,-105.438c0,-4.895 2.647,-7.342 7.94,-7.342l66.934,0c3.13,0 5.222,0.663 6.275,1.988c1.053,1.325 1.579,3.256 1.579,5.793l0,2.623c0,5.187 -2.618,7.781 -7.854,7.781c-0.341,0 -3.486,-0.057 -9.434,-0.171c-5.948,-0.114 -13.005,-0.228 -21.173,-0.341c-8.168,-0.114 -14.642,-0.171 -19.423,-0.171l0,34.577l42.175,0c5.122,0 7.684,2.675 7.684,8.025c0,2.561 -0.47,4.525 -1.409,5.891c-0.939,1.366 -1.878,2.163 -2.817,2.39c-0.939,0.228 -2.206,0.341 -3.799,0.341l-41.834,0l0,44.395c0,5.122 -2.561,7.684 -7.684,7.684l-9.05,0c-3.244,0 -5.407,-0.726 -6.488,-2.177c-1.081,-1.451 -1.622,-3.401 -1.622,-5.848Z" style="fill-rule:nonzero;"/><path d="M124.354,172.463l0,-105.096c0,-5.35 2.704,-8.025 8.111,-8.025l42.431,0c15.595,0.228 27.149,3.358 34.662,9.391c7.342,5.919 11.013,14.258 11.013,25.015c0,16.109 -9.05,26.457 -27.149,31.043c-0.341,0.115 -0.626,0.172 -0.854,0.172l28.686,48.217c0.683,1.418 1.081,2.523 1.195,3.316c-0.341,2.776 -2.305,4.163 -5.891,4.163l-9.989,0c-2.447,0 -4.198,-0.325 -5.251,-0.976c-1.053,-0.652 -2.092,-1.941 -3.116,-3.867c-17.929,-30.874 -27.434,-47.302 -28.515,-49.284l-21.002,0l0,46.48c0,0.906 -0.057,1.657 -0.171,2.252c-0.114,0.595 -0.37,1.388 -0.768,2.38c-0.398,0.991 -1.238,1.741 -2.519,2.252c-1.281,0.51 -2.86,0.764 -4.738,0.764l-8.452,0c-5.122,0 -7.684,-2.732 -7.684,-8.196Zm24.332,-58.738l22.027,0c8.879,0 15.496,-1.281 19.85,-3.842c4.354,-2.561 6.531,-7.812 6.531,-15.752c0,-7.94 -2.149,-13.219 -6.446,-15.837c-4.297,-2.618 -10.885,-3.927 -19.764,-3.927l-22.027,0l-0.171,5.891l0,33.467Z" style="fill-rule:nonzero;"/></g></g></svg>