<?xml version="1.0" encoding="UTF-8" standalone="no"?>
<!DOCTYPE svg PUBLIC "-//W3C//DTD SVG 1.1//EN" "http://www.w3.org/Graphics/SVG/1.1/DTD/svg11.dtd">
<svg width="100%" height="100%" viewBox="0 0 800 800" version="1.1" xmlns="http://www.w3.org/2000/svg" xmlns:xlink="http://www.w3.org/1999/xlink" xml:space="preserve" xmlns:serif="http://www.serif.com/" style="fill-rule:evenodd;clip-rule:evenodd;stroke-linejoin:round;stroke-miterlimit:2;">
    <rect x="0" y="0" width="800" height="800" style="fill:rgb(96,176,201);"/>
    <g transform="matrix(0.859375,0,0,0.859375,-40,-6.666667)">
        <path d="M512,789.333L405.333,661.333L405.333,533.333L618.667,533.333L618.667,661.333L512,789.333Z" style="fill:rgb(255,152,0);fill-rule:nonzero;"/>
    </g>
    <g transform="matrix(0.859375,0,0,0.859375,-40,-6.666667)">
        <path d="M661.333,405.333C661.333,428.74 680.594,448 704,448C727.406,448 746.667,428.74 746.667,405.333L746.667,405.333C746.667,381.927 727.406,362.667 704,362.667C680.594,362.667 661.333,381.927 661.333,405.333L661.333,405.333Z" style="fill:rgb(255,167,38);fill-rule:nonzero;"/>
    </g>
    <g transform="matrix(0.859375,0,0,0.859375,-40,-6.666667)">
        <path d="M277.333,405.333C277.333,428.74 296.594,448 320,448C343.406,448 362.667,428.74 362.667,405.333L362.667,405.333C362.667,381.927 343.406,362.667 320,362.667C296.594,362.667 277.333,381.927 277.333,405.333L277.333,405.333Z" style="fill:rgb(255,167,38);fill-rule:nonzero;"/>
    </g>
    <g transform="matrix(0.859375,0,0,0.859375,-40,-6.666667)">
        <path d="M704,277.333C704,115.2 320,170.667 320,277.333L320,426.667C320,533.333 405.333,618.667 512,618.667C618.667,618.667 704,533.333 704,426.667L704,277.333Z" style="fill:rgb(255,183,77);fill-rule:nonzero;"/>
    </g>
    <g transform="matrix(0.859375,0,0,0.859375,-40,-6.666667)">
        <path d="M512,85.333C381.867,85.333 298.667,189.867 298.667,320L298.667,369.067L341.333,405.333L341.333,298.667L597.333,213.333L682.667,298.667L682.667,405.333L725.333,369.067L725.333,320C725.333,234.667 704,149.333 597.333,128L576,85.333L512,85.333Z" style="fill:rgb(66,66,66);fill-rule:nonzero;"/>
    </g>
    <g transform="matrix(0.859375,0,0,0.859375,-40,-6.666667)">
        <path d="M576,405.333C576,417.036 585.63,426.667 597.333,426.667C609.036,426.667 618.667,417.036 618.667,405.333C618.667,393.63 609.036,384 597.333,384C585.63,384 576,393.63 576,405.333Z" style="fill:rgb(120,71,25);fill-rule:nonzero;"/>
    </g>
    <g transform="matrix(0.859375,0,0,0.859375,-40,-6.666667)">
        <path d="M405.333,405.333C405.333,417.036 414.964,426.667 426.667,426.667C438.37,426.667 448,417.036 448,405.333C448,393.63 438.37,384 426.667,384C414.964,384 405.333,393.63 405.333,405.333Z" style="fill:rgb(120,71,25);fill-rule:nonzero;"/>
    </g>
    <g transform="matrix(0.859375,0,0,0.859375,-40,-6.666667)">
        <path d="M512,917.333L405.333,661.333L512,682.667L618.667,661.333L512,917.333Z" style="fill:white;fill-rule:nonzero;"/>
    </g>
    <g transform="matrix(0.859375,0,0,0.859375,-40,-6.666667)">
        <path d="M490.667,746.667L475.733,842.667L512,928L548.267,842.667L533.333,746.667L554.667,725.333L512,682.667L469.333,725.333L490.667,746.667Z" style="fill:rgb(211,47,47);fill-rule:nonzero;"/>
    </g>
    <g transform="matrix(0.859375,0,0,0.859375,-40,-6.666667)">
        <path d="M618.667,661.333L512,917.333L405.333,661.333C405.333,661.333 170.667,704 170.667,938.667L853.333,938.667C853.333,704 618.667,661.333 618.667,661.333Z" style="fill:rgb(84,110,122);fill-rule:nonzero;"/>
    </g>
</svg>
